# xmcd
#
# Track frame offsets: 
#        150
#        12730
#        24505
#        36885
#        51040
#        63810
#        75797
#        89617
#        108455
#        117027
#        125207
#
# Disc length: 1850 seconds
#
# Revision: 5
# Processed by: cddbd v1.5.1PL2 Copyright (c) Steve Scherf et al.
# Submitted via: ExactAudioCopy v0.95b3
#
DISCID=8807380b
DTITLE=Johnny Cash - Greatest Hits, Volume One
DYEAR=1900
DGENRE=Country
TTITLE0=Jackson
TTITLE1=I Walk The Line
TTITLE2=Understand Your Man
TTITLE3=Orange Blossom Special
TTITLE4=The One On The Right Is On The Left
TTITLE5=Ring OF Fire
TTITLE6=It Ain't Me, Babe
TTITLE7=The Ballad Of Ira Hayes
TTITLE8=The Rebel - Johnny Yuma
TTITLE9=Five Feet High And Rising
TTITLE10=Don't Take Your Guns To Town
EXTD=
EXTT0=
EXTT1=
EXTT2=
EXTT3=
EXTT4=
EXTT5=
EXTT6=
EXTT7=
EXTT8=
EXTT9=
EXTT10=
PLAYORDER=
